<svg width="53" height="53" viewBox="0 0 53 53" fill="none" xmlns="http://www.w3.org/2000/svg">
<path d="M26.5 0C16.3688 0 8.15381 8.215 8.15381 18.3462C8.15381 32.6154 26.5 53 26.5 53C26.5 53 44.8461 32.6154 44.8461 18.3462C44.8461 8.215 36.6311 0 26.5 0Z" fill="url(#paint0_linear_32_253)"/>
<path d="M26.5 28.5384C32.1291 28.5384 36.6924 23.9752 36.6924 18.3461C36.6924 12.7171 32.1291 8.15381 26.5 8.15381C20.871 8.15381 16.3077 12.7171 16.3077 18.3461C16.3077 23.9752 20.871 28.5384 26.5 28.5384Z" fill="white"/>
<path d="M30.577 14.269H22.4231C21.2973 14.269 20.3846 15.1817 20.3846 16.3075V20.3844C20.3846 21.5102 21.2973 22.4229 22.4231 22.4229H30.577C31.7028 22.4229 32.6154 21.5102 32.6154 20.3844V16.3075C32.6154 15.1817 31.7028 14.269 30.577 14.269Z" fill="#1A9DB8"/>
<path d="M26.5 20.894C27.9072 20.894 29.0481 19.7532 29.0481 18.3459C29.0481 16.9387 27.9072 15.7979 26.5 15.7979C25.0927 15.7979 23.9519 16.9387 23.9519 18.3459C23.9519 19.7532 25.0927 20.894 26.5 20.894Z" fill="white"/>
<path d="M25.4808 12.7402H23.4423C22.8794 12.7402 22.4231 13.1966 22.4231 13.7595C22.4231 14.3224 22.8794 14.7787 23.4423 14.7787H25.4808C26.0437 14.7787 26.5 14.3224 26.5 13.7595C26.5 13.1966 26.0437 12.7402 25.4808 12.7402Z" fill="#1A9DB8"/>
<defs>
<linearGradient id="paint0_linear_32_253" x1="8.15381" y1="0" x2="8.15381" y2="53" gradientUnits="userSpaceOnUse">
<stop stop-color="#00B5D4"/>
<stop offset="1" stop-color="#009EB9"/>
</linearGradient>
</defs>
</svg>
