<svg width="53" height="53" viewBox="0 0 53 53" fill="none" xmlns="http://www.w3.org/2000/svg">
<rect width="53" height="53" rx="12" fill="#1A9DB8"/>
<path d="M26.5 8C19.4273 8 13.6923 13.735 13.6923 20.8077C13.6923 30.7692 26.5 45 26.5 45C26.5 45 39.3076 30.7692 39.3076 20.8077C39.3076 13.735 33.5726 8 26.5 8Z" fill="white"/>
<path d="M26.5 27.9232C30.4297 27.9232 33.6154 24.7375 33.6154 20.8078C33.6154 16.878 30.4297 13.6924 26.5 13.6924C22.5703 13.6924 19.3846 16.878 19.3846 20.8078C19.3846 24.7375 22.5703 27.9232 26.5 27.9232Z" fill="#1A9DB8"/>
<path d="M29.3462 17.9614H23.6539C22.8679 17.9614 22.2308 18.5986 22.2308 19.3845V22.2307C22.2308 23.0166 22.8679 23.6537 23.6539 23.6537H29.3462C30.1321 23.6537 30.7692 23.0166 30.7692 22.2307V19.3845C30.7692 18.5986 30.1321 17.9614 29.3462 17.9614Z" fill="white"/>
<path d="M26.5 22.5865C27.4824 22.5865 28.2788 21.7901 28.2788 20.8077C28.2788 19.8252 27.4824 19.0288 26.5 19.0288C25.5175 19.0288 24.7211 19.8252 24.7211 20.8077C24.7211 21.7901 25.5175 22.5865 26.5 22.5865Z" fill="#1A9DB8"/>
<path d="M25.7885 16.894H24.3654C23.9724 16.894 23.6539 17.2126 23.6539 17.6056C23.6539 17.9986 23.9724 18.3171 24.3654 18.3171H25.7885C26.1815 18.3171 26.5 17.9986 26.5 17.6056C26.5 17.2126 26.1815 16.894 25.7885 16.894Z" fill="white"/>
</svg>
