<svg width="185" height="53" viewBox="0 0 185 53" fill="none" xmlns="http://www.w3.org/2000/svg">
<path d="M18.3097 20.2756C18.196 19.1297 17.7083 18.2396 16.8466 17.6051C15.9848 16.9706 14.8153 16.6534 13.3381 16.6534C12.3343 16.6534 11.4867 16.7955 10.7955 17.0795C10.1042 17.3542 9.57386 17.7377 9.20455 18.2301C8.8447 18.7225 8.66477 19.2812 8.66477 19.9062C8.64583 20.4271 8.75473 20.8816 8.99148 21.2699C9.23769 21.6581 9.57386 21.9943 10 22.2784C10.4261 22.553 10.9186 22.7945 11.4773 23.0028C12.036 23.2017 12.6326 23.3722 13.267 23.5142L15.8807 24.1392C17.1496 24.4233 18.3144 24.8021 19.375 25.2756C20.4356 25.7491 21.3542 26.3314 22.1307 27.0227C22.9072 27.714 23.5085 28.5284 23.9347 29.4659C24.3703 30.4034 24.5928 31.4782 24.6023 32.6903C24.5928 34.4706 24.1383 36.0142 23.2386 37.321C22.3485 38.6184 21.0606 39.6269 19.375 40.3466C17.6989 41.0568 15.6771 41.4119 13.3097 41.4119C10.9612 41.4119 8.91572 41.0521 7.1733 40.3324C5.44034 39.6127 4.08617 38.5473 3.1108 37.1364C2.14489 35.7159 1.63826 33.9593 1.59091 31.8665H7.54261C7.6089 32.8419 7.88826 33.6562 8.38068 34.3097C8.88258 34.9536 9.55019 35.4413 10.3835 35.7727C11.2263 36.0947 12.178 36.2557 13.2386 36.2557C14.2803 36.2557 15.1847 36.1042 15.9517 35.8011C16.7282 35.4981 17.3295 35.0767 17.7557 34.5369C18.1818 33.9972 18.3949 33.3769 18.3949 32.6761C18.3949 32.0227 18.2008 31.4735 17.8125 31.0284C17.4337 30.5833 16.875 30.2045 16.1364 29.892C15.4072 29.5795 14.5123 29.2955 13.4517 29.0398L10.2841 28.2443C7.83144 27.6477 5.89489 26.715 4.47443 25.446C3.05398 24.1771 2.34848 22.4678 2.35795 20.3182C2.34848 18.5568 2.81723 17.018 3.7642 15.7017C4.72064 14.3854 6.0322 13.358 7.69886 12.6193C9.36553 11.8807 11.2595 11.5114 13.3807 11.5114C15.5398 11.5114 17.4242 11.8807 19.0341 12.6193C20.6534 13.358 21.9129 14.3854 22.8125 15.7017C23.7121 17.018 24.1761 18.5426 24.2045 20.2756H18.3097ZM34.6768 28.3864V41H28.6257V19.1818H34.3928V23.0312H34.6484C35.1314 21.7623 35.9411 20.7585 37.0774 20.0199C38.2138 19.2718 39.5916 18.8977 41.2109 18.8977C42.7261 18.8977 44.0471 19.2292 45.174 19.892C46.3009 20.5549 47.1768 21.5019 47.8018 22.733C48.4268 23.9545 48.7393 25.4129 48.7393 27.108V41H42.6882V28.1875C42.6977 26.8523 42.3568 25.8106 41.6655 25.0625C40.9742 24.3049 40.0225 23.9261 38.8104 23.9261C37.996 23.9261 37.2763 24.1013 36.6513 24.4517C36.0357 24.8021 35.5528 25.3134 35.2024 25.9858C34.8615 26.6487 34.6863 27.4489 34.6768 28.3864ZM59.7301 41.4119C58.3381 41.4119 57.0975 41.1705 56.0085 40.6875C54.9195 40.1951 54.0578 39.4706 53.4233 38.5142C52.7983 37.5483 52.4858 36.3456 52.4858 34.9062C52.4858 33.6941 52.7083 32.6761 53.1534 31.8523C53.5985 31.0284 54.2045 30.3655 54.9716 29.8636C55.7386 29.3617 56.6098 28.983 57.5852 28.7273C58.5701 28.4716 59.6023 28.2917 60.6818 28.1875C61.9508 28.0549 62.9735 27.9318 63.75 27.8182C64.5265 27.6951 65.09 27.5152 65.4403 27.2784C65.7907 27.0417 65.9659 26.6913 65.9659 26.2273V26.142C65.9659 25.2424 65.6818 24.5464 65.1136 24.054C64.5549 23.5616 63.7595 23.3153 62.7273 23.3153C61.6383 23.3153 60.7718 23.5568 60.1278 24.0398C59.4839 24.5133 59.0578 25.1098 58.8494 25.8295L53.2528 25.375C53.5369 24.0492 54.0956 22.9034 54.929 21.9375C55.7623 20.9621 56.8371 20.214 58.1534 19.6932C59.4792 19.1629 61.0133 18.8977 62.7557 18.8977C63.9678 18.8977 65.1278 19.0398 66.2358 19.3239C67.3532 19.608 68.3428 20.0483 69.2045 20.6449C70.0758 21.2415 70.7623 22.0085 71.2642 22.946C71.7661 23.8741 72.017 24.9867 72.017 26.2841V41H66.2784V37.9744H66.108C65.7576 38.6562 65.2888 39.2576 64.7017 39.7784C64.1146 40.2898 63.4091 40.6922 62.5852 40.9858C61.7614 41.2699 60.8097 41.4119 59.7301 41.4119ZM61.4631 37.2358C62.3532 37.2358 63.1392 37.0606 63.821 36.7102C64.5028 36.3504 65.0379 35.8674 65.4261 35.2614C65.8144 34.6553 66.0085 33.9687 66.0085 33.2017V30.8864C65.8191 31.0095 65.5587 31.1231 65.2273 31.2273C64.9053 31.322 64.5407 31.4119 64.1335 31.4972C63.7263 31.5729 63.3191 31.6439 62.9119 31.7102C62.5047 31.767 62.1354 31.8191 61.804 31.8665C61.0938 31.9706 60.4735 32.1364 59.9432 32.3636C59.4129 32.5909 59.0009 32.8987 58.7074 33.2869C58.4138 33.6657 58.267 34.1392 58.267 34.7074C58.267 35.5312 58.5653 36.161 59.1619 36.5966C59.768 37.0227 60.535 37.2358 61.4631 37.2358ZM76.7116 49.1818V19.1818H82.6776V22.8466H82.9474C83.2126 22.2595 83.5961 21.6629 84.098 21.0568C84.6094 20.4413 85.2723 19.9299 86.0866 19.5227C86.9105 19.1061 87.9332 18.8977 89.1548 18.8977C90.7457 18.8977 92.2135 19.3144 93.5582 20.1477C94.9029 20.9716 95.9777 22.2169 96.7827 23.8835C97.5876 25.5407 97.9901 27.6193 97.9901 30.1193C97.9901 32.553 97.5971 34.608 96.8111 36.2841C96.0346 37.9508 94.974 39.215 93.6293 40.0767C92.294 40.929 90.7978 41.3551 89.1406 41.3551C87.9664 41.3551 86.9673 41.161 86.1435 40.7727C85.3291 40.3845 84.6615 39.8968 84.1406 39.3097C83.6198 38.7131 83.2221 38.1117 82.9474 37.5057H82.7628V49.1818H76.7116ZM82.6349 30.0909C82.6349 31.3883 82.8149 32.5199 83.1747 33.4858C83.5346 34.4517 84.0554 35.2045 84.7372 35.7443C85.419 36.2746 86.2476 36.5398 87.223 36.5398C88.2079 36.5398 89.0412 36.2699 89.723 35.7301C90.4048 35.1809 90.9209 34.4233 91.2713 33.4574C91.6312 32.482 91.8111 31.3598 91.8111 30.0909C91.8111 28.8314 91.6359 27.7235 91.2855 26.767C90.9351 25.8106 90.419 25.0625 89.7372 24.5227C89.0554 23.983 88.2173 23.7131 87.223 23.7131C86.2382 23.7131 85.4048 23.9735 84.723 24.4943C84.0507 25.0152 83.5346 25.7538 83.1747 26.7102C82.8149 27.6667 82.6349 28.7936 82.6349 30.0909Z" fill="#E0FAFF"/>
<path d="M102.138 11.9091H109.723L117.734 31.4545H118.075L126.087 11.9091H133.672V41H127.706V22.0653H127.464L119.936 40.858H115.874L108.345 21.9943H108.104V41H102.138V11.9091ZM144.847 41.4119C143.455 41.4119 142.215 41.1705 141.126 40.6875C140.037 40.1951 139.175 39.4706 138.54 38.5142C137.915 37.5483 137.603 36.3456 137.603 34.9062C137.603 33.6941 137.826 32.6761 138.271 31.8523C138.716 31.0284 139.322 30.3655 140.089 29.8636C140.856 29.3617 141.727 28.983 142.702 28.7273C143.687 28.4716 144.719 28.2917 145.799 28.1875C147.068 28.0549 148.091 27.9318 148.867 27.8182C149.644 27.6951 150.207 27.5152 150.558 27.2784C150.908 27.0417 151.083 26.6913 151.083 26.2273V26.142C151.083 25.2424 150.799 24.5464 150.231 24.054C149.672 23.5616 148.877 23.3153 147.844 23.3153C146.755 23.3153 145.889 23.5568 145.245 24.0398C144.601 24.5133 144.175 25.1098 143.967 25.8295L138.37 25.375C138.654 24.0492 139.213 22.9034 140.046 21.9375C140.879 20.9621 141.954 20.214 143.271 19.6932C144.596 19.1629 146.13 18.8977 147.873 18.8977C149.085 18.8977 150.245 19.0398 151.353 19.3239C152.47 19.608 153.46 20.0483 154.322 20.6449C155.193 21.2415 155.879 22.0085 156.381 22.946C156.883 23.8741 157.134 24.9867 157.134 26.2841V41H151.396V37.9744H151.225C150.875 38.6562 150.406 39.2576 149.819 39.7784C149.232 40.2898 148.526 40.6922 147.702 40.9858C146.879 41.2699 145.927 41.4119 144.847 41.4119ZM146.58 37.2358C147.47 37.2358 148.256 37.0606 148.938 36.7102C149.62 36.3504 150.155 35.8674 150.543 35.2614C150.932 34.6553 151.126 33.9687 151.126 33.2017V30.8864C150.936 31.0095 150.676 31.1231 150.344 31.2273C150.022 31.322 149.658 31.4119 149.251 31.4972C148.844 31.5729 148.436 31.6439 148.029 31.7102C147.622 31.767 147.253 31.8191 146.921 31.8665C146.211 31.9706 145.591 32.1364 145.06 32.3636C144.53 32.5909 144.118 32.8987 143.825 33.2869C143.531 33.6657 143.384 34.1392 143.384 34.7074C143.384 35.5312 143.683 36.161 144.279 36.5966C144.885 37.0227 145.652 37.2358 146.58 37.2358ZM161.829 49.1818V19.1818H167.795V22.8466H168.065C168.33 22.2595 168.713 21.6629 169.215 21.0568C169.727 20.4413 170.389 19.9299 171.204 19.5227C172.028 19.1061 173.05 18.8977 174.272 18.8977C175.863 18.8977 177.331 19.3144 178.675 20.1477C180.02 20.9716 181.095 22.2169 181.9 23.8835C182.705 25.5407 183.107 27.6193 183.107 30.1193C183.107 32.553 182.714 34.608 181.928 36.2841C181.152 37.9508 180.091 39.215 178.746 40.0767C177.411 40.929 175.915 41.3551 174.258 41.3551C173.084 41.3551 172.085 41.161 171.261 40.7727C170.446 40.3845 169.779 39.8968 169.258 39.3097C168.737 38.7131 168.339 38.1117 168.065 37.5057H167.88V49.1818H161.829ZM167.752 30.0909C167.752 31.3883 167.932 32.5199 168.292 33.4858C168.652 34.4517 169.173 35.2045 169.854 35.7443C170.536 36.2746 171.365 36.5398 172.34 36.5398C173.325 36.5398 174.158 36.2699 174.84 35.7301C175.522 35.1809 176.038 34.4233 176.388 33.4574C176.748 32.482 176.928 31.3598 176.928 30.0909C176.928 28.8314 176.753 27.7235 176.403 26.767C176.052 25.8106 175.536 25.0625 174.854 24.5227C174.173 23.983 173.335 23.7131 172.34 23.7131C171.355 23.7131 170.522 23.9735 169.84 24.4943C169.168 25.0152 168.652 25.7538 168.292 26.7102C167.932 27.6667 167.752 28.7936 167.752 30.0909Z" fill="#00B5D4"/>
</svg>
